<svg width="20" height="20" viewBox="0 0 20 20" fill="none" xmlns="http://www.w3.org/2000/svg">
<mask id="path-1-inside-1_57_10064" fill="white">
<path d="M10.0225 8.9753C10.0225 9.52882 10.4712 9.97754 11.0247 9.97754H19.0427C19.5962 9.97754 20.0502 10.4276 19.9956 10.9784C19.4934 16.0437 15.2199 20 10.0225 20C4.48722 20 0 15.5128 0 9.97754C0.000130736 4.78019 3.95637 0.50665 9.02162 0.00442789C9.57244 -0.0501864 10.0225 0.403798 10.0225 0.957322V8.9753Z"/>
</mask>
<path d="M10.0225 20V22.0045H10.0225L10.0225 20ZM0 9.97754L-2.00449 9.97749V9.97754H0ZM19.9956 10.9784L18.0009 10.7806L19.9956 10.9784ZM11.0247 9.97754V11.982H19.0427V9.97754V7.97305H11.0247V9.97754ZM19.9956 10.9784L18.0009 10.7806C17.5993 14.8307 14.1792 17.9955 10.0225 17.9955L10.0225 20L10.0225 22.0045C16.2606 22.0045 21.3874 17.2567 21.9903 11.1761L19.9956 10.9784ZM10.0225 20V17.9955C5.59427 17.9955 2.00449 14.4057 2.00449 9.97754H0H-2.00449C-2.00449 16.6198 3.38017 22.0045 10.0225 22.0045V20ZM0 9.97754L2.00449 9.97759C2.00459 5.82086 5.16938 2.4007 9.2194 1.99914L9.02162 0.00442789L8.82384 -1.99028C2.74335 -1.3874 -2.00433 3.73952 -2.00449 9.97749L0 9.97754ZM10.0225 0.957322H8.01797V8.9753H10.0225H12.0269V0.957322H10.0225ZM9.02162 0.00442789L9.2194 1.99914C8.45808 2.07462 8.01797 1.4515 8.01797 0.957322H10.0225H12.0269C12.0269 -0.643906 10.6868 -2.17499 8.82384 -1.99028L9.02162 0.00442789ZM19.0427 9.97754V11.982C18.5485 11.982 17.9254 11.5419 18.0009 10.7806L19.9956 10.9784L21.9903 11.1761C22.175 9.31319 20.6439 7.97305 19.0427 7.97305V9.97754ZM11.0247 9.97754V7.97305C11.5782 7.97305 12.0269 8.42177 12.0269 8.9753H10.0225H8.01797C8.01797 10.6359 9.36413 11.982 11.0247 11.982V9.97754Z" fill="white" mask="url(#path-1-inside-1_57_10064)"/>
<mask id="path-3-inside-2_57_10064" fill="white">
<path d="M11.9512 1.15924C11.9512 0.533178 12.5211 0.0578255 13.1187 0.244482C16.2415 1.21987 18.7051 3.68336 19.6804 6.80614C19.867 7.40373 19.3917 7.97363 18.7656 7.97363H12.9534C12.3999 7.97363 11.9512 7.52491 11.9512 6.97139V1.15924Z"/>
</mask>
<path d="M13.1187 0.244482L12.5211 2.15781C15.016 2.93709 16.9878 4.90889 17.767 7.40372L19.6804 6.80614L21.5937 6.20856C20.4223 2.45783 17.4669 -0.497349 13.7163 -1.66884L13.1187 0.244482ZM18.7656 7.97363V5.96914H12.9534V7.97363V9.97812H18.7656V7.97363ZM11.9512 6.97139H13.9557V1.15924H11.9512H9.94668V6.97139H11.9512ZM12.9534 7.97363V5.96914C13.5069 5.96914 13.9557 6.41786 13.9557 6.97139H11.9512H9.94668C9.94668 8.63196 11.2928 9.97812 12.9534 9.97812V7.97363ZM19.6804 6.80614L17.767 7.40372C17.6478 7.02195 17.7499 6.6275 17.9626 6.36168C18.1641 6.10983 18.4616 5.96914 18.7656 5.96914V7.97363V9.97812C20.5572 9.97812 22.2375 8.26973 21.5937 6.20856L19.6804 6.80614ZM13.1187 0.244482L13.7163 -1.66884C11.6551 -2.31265 9.94668 -0.632376 9.94668 1.15924H11.9512H13.9557C13.9557 1.46326 13.815 1.76076 13.5631 1.96227C13.2973 2.17495 12.9028 2.27705 12.5211 2.15781L13.1187 0.244482Z" fill="white" mask="url(#path-3-inside-2_57_10064)"/>
</svg>
