<svg width="24" height="24" viewBox="0 0 24 24" fill="none" xmlns="http://www.w3.org/2000/svg">
<path d="M10.7124 0.976743C11.0014 0.680373 11.4763 0.673545 11.7729 0.962095C12.069 1.25109 12.076 1.72613 11.7876 2.02265L10.9893 2.8415C10.4797 3.36468 10.4935 4.20288 11.02 4.70916C12.1463 5.79258 12.1753 7.58618 11.0845 8.70527L10.7974 8.99969H13.5029C13.5027 8.83304 13.5552 8.66451 13.6684 8.52509L14.0713 8.02997C14.2589 7.7985 14.2533 7.46415 14.0581 7.23896C13.3864 6.46341 13.3686 5.318 14.0156 4.52166L14.4184 4.02509C14.6798 3.70455 15.1519 3.65588 15.4731 3.91668C15.7941 4.17779 15.8421 4.65003 15.5815 4.97138L15.1786 5.4665C14.9907 5.6979 14.9967 6.0321 15.1918 6.25751C15.8635 7.03284 15.8809 8.17841 15.2343 8.97479L15.2139 8.99969H19.7505C21.8214 8.99996 23.5005 10.6788 23.5005 12.7497C23.5002 14.8204 21.8212 16.4995 19.7505 16.4996H18.3676C17.659 20.4784 14.1827 23.5 10.0005 23.5001C5.3062 23.5001 1.50021 19.6939 1.5 14.9996V8.99969H4.50292C4.50294 8.78286 4.59352 8.56788 4.77393 8.41962L5.56054 7.77362C5.93539 7.46604 5.92708 6.89022 5.54296 6.59442C4.3935 5.71022 4.36647 3.9857 5.4873 3.06561L6.27393 2.41962C6.59412 2.1569 7.06732 2.20346 7.33008 2.52362C7.59267 2.84381 7.54618 3.31706 7.22607 3.57977L6.43946 4.22577C6.06499 4.53344 6.073 5.10929 6.45703 5.40497C7.60659 6.28929 7.63393 8.01378 6.5127 8.93378L6.43214 8.99969H9.00147C9.00129 8.81103 9.0706 8.62251 9.2124 8.47674L10.0107 7.65789C10.5203 7.13481 10.5062 6.29654 9.97998 5.79023C8.85342 4.70684 8.82456 2.91332 9.91552 1.79412L10.7124 0.976743ZM3 14.9996C3.00021 18.8656 6.13462 22.0001 10.0005 22.0001C13.4431 22 16.3077 19.5115 16.891 16.2361L16.9995 15.6251V10.4997H3V14.9996ZM18.4995 14.5002H19.7505C20.7166 14.4999 21.4993 13.7159 21.4995 12.7497C21.4995 11.7834 20.7168 10.9995 19.7505 10.9992H18.4995V14.5002Z" fill="white" stroke="white" stroke-width="0.266667"/>
<path d="M18.75 22.5H2.25C1.83579 22.5 1.5 22.8358 1.5 23.25C1.5 23.6642 1.83579 24 2.25 24H18.75C19.1642 24 19.5 23.6642 19.5 23.25C19.5 22.8358 19.1642 22.5 18.75 22.5Z" fill="white"/>
</svg>
