<svg width="20" height="20" viewBox="0 0 20 20" fill="none" xmlns="http://www.w3.org/2000/svg">
<g clip-path="url(#clip0_57_9977)">
<path d="M9.99935 1.66602C12.0837 3.94798 13.2683 6.90938 13.3327 9.99935C13.2683 13.0893 12.0837 16.0507 9.99935 18.3327M9.99935 1.66602C7.91495 3.94798 6.73039 6.90938 6.66602 9.99935C6.73039 13.0893 7.91495 16.0507 9.99935 18.3327M9.99935 1.66602C5.39698 1.66602 1.66602 5.39698 1.66602 9.99935C1.66602 14.6017 5.39698 18.3327 9.99935 18.3327M9.99935 1.66602C14.6017 1.66602 18.3327 5.39698 18.3327 9.99935C18.3327 14.6017 14.6017 18.3327 9.99935 18.3327M2.0827 7.49935H17.916M2.08268 12.4993H17.916" stroke="black" stroke-width="1.66667" stroke-linecap="round" stroke-linejoin="round"/>
</g>
<defs>
<clipPath id="clip0_57_9977">
<rect width="20" height="20" fill="white"/>
</clipPath>
</defs>
</svg>
