<svg width="24" height="20" viewBox="0 0 24 20" fill="none" xmlns="http://www.w3.org/2000/svg">
<path d="M1.94727 13.5879C1.92434 13.6709 1.9141 13.7435 1.91406 13.8037C1.9141 13.8635 1.92464 13.9352 1.94727 14.0176V16.9033C0.716887 16.0115 0.00014848 14.9482 0 13.8037C0.00013313 12.6591 0.716646 11.5949 1.94727 10.7031V13.5879ZM22.0527 10.7031C23.2833 11.5949 23.9999 12.6591 24 13.8037C23.9999 14.9482 23.2831 16.0115 22.0527 16.9033V14.0176C22.0754 13.9352 22.0859 13.8635 22.0859 13.8037C22.0859 13.7438 22.0755 13.6715 22.0527 13.5889V10.7031Z" fill="white"/>
<path d="M12 0C13.1737 0.000263212 14.125 0.952198 14.125 2.12598C14.1248 3.14738 13.4039 3.99892 12.4434 4.20312L12.9463 5.23438C15.4819 5.32778 17.9971 5.79729 20.0332 6.67188L20.6123 6.9209V17.751L20.0332 18C17.7436 18.9834 14.8481 19.4561 11.999 19.4561C9.15009 19.456 6.25532 18.9834 3.96582 18L3.38672 17.751V6.9209L3.96582 6.67188C6.00151 5.79748 8.51578 5.32793 11.0508 5.23438L11.5537 4.20312C10.5941 3.99821 9.87425 3.14671 9.87402 2.12598C9.87402 0.952036 10.8261 0 12 0ZM11.999 7.12988C9.58313 7.12992 7.20473 7.49593 5.30078 8.19922V16.4717C7.20477 17.175 9.58304 17.542 11.999 17.542C14.4151 17.542 16.7942 17.1751 18.6982 16.4717V8.19922C16.7942 7.49585 14.4151 7.12988 11.999 7.12988ZM11.2109 11.3164C11.6314 11.6366 11.7128 12.2377 11.3926 12.6582C11.0724 13.0784 10.4721 13.1597 10.0518 12.8398L9.03613 12.0664L8.02734 12.8379C7.60756 13.159 7.00665 13.079 6.68555 12.6592C6.36481 12.2395 6.44483 11.6394 6.86426 11.3184L9.03418 9.65918L11.2109 11.3164ZM17.1318 11.3164C17.5523 11.6366 17.6337 12.2377 17.3135 12.6582C16.9933 13.0783 16.393 13.1598 15.9727 12.8398L14.957 12.0664L13.9482 12.8379C13.5285 13.159 12.9276 13.079 12.6064 12.6592C12.2858 12.2395 12.3658 11.6394 12.7852 11.3184L14.9551 9.65918L17.1318 11.3164Z" fill="white"/>
</svg>
