<svg width="24" height="24" viewBox="0 0 24 24" fill="none" xmlns="http://www.w3.org/2000/svg">
<path d="M12.22 2H11.78C11.2496 2.00096 10.7412 2.21206 10.3662 2.58705C9.99121 2.96203 9.78012 3.47045 9.77916 4.00084C9.7782 4.53123 9.9893 5.03965 10.3643 5.41464C10.7393 5.78962 11.2477 6.00072 11.7781 6.00168L12.22 6C12.7504 5.99904 13.2588 5.78794 13.6338 5.41295C14.0088 5.03797 14.2199 4.52955 14.2208 3.99916C14.2218 3.46877 14.0107 2.96035 13.6357 2.58536C13.2607 2.21038 12.7523 1.99928 12.2219 1.99832H12.22ZM19.07 4.93L19.5 4.5C19.875 4.125 20.3835 3.91429 20.9138 3.91429C21.4442 3.91429 21.9526 4.125 22.3276 4.5C22.7026 4.875 22.9133 5.38352 22.9133 5.91384C22.9133 6.44416 22.7026 6.95268 22.3276 7.32768L21.9 7.76C21.525 8.135 21.0165 8.34571 20.4862 8.34571C19.9558 8.34571 19.4474 8.135 19.0724 7.76C18.6974 7.385 18.4867 6.87648 18.4867 6.34616C18.4867 5.81584 18.6974 5.30732 19.0724 4.93232L19.07 4.93ZM20 12.22V11.78C19.999 11.2496 19.7879 10.7412 19.4129 10.3662C19.038 9.99121 18.5295 9.78012 17.9992 9.77916C17.4688 9.7782 16.9603 9.9893 16.5854 10.3643C16.2104 10.7393 15.9993 11.2477 15.9983 11.7781L16 12.22C16.001 12.7504 16.2121 13.2588 16.587 13.6338C16.962 14.0088 17.4705 14.2199 18.0008 14.2208C18.5312 14.2218 19.0397 14.0107 19.4146 13.6357C19.7896 13.2607 20.0007 12.7523 20.0017 12.2219V12.22ZM19.07 19.07L18.64 19.5C18.265 19.875 17.7565 20.0857 17.2262 20.0857C16.6958 20.0857 16.1874 19.875 15.8124 19.5C15.4374 19.125 15.2267 18.6165 15.2267 18.0862C15.2267 17.5558 15.4374 17.0473 15.8124 16.6723L16.24 16.24C16.615 15.865 17.1235 15.6543 17.6538 15.6543C18.1842 15.6543 18.6926 15.865 19.0676 16.24C19.4426 16.615 19.6533 17.1235 19.6533 17.6538C19.6533 18.1842 19.4426 18.6926 19.0676 19.0676L19.07 19.07ZM11.78 22H12.22C12.7504 21.999 13.2588 21.7879 13.6338 21.4129C14.0088 21.038 14.2199 20.5295 14.2208 19.9992C14.2218 19.4688 14.0107 18.9603 13.6357 18.5854C13.2607 18.2104 12.7523 17.9993 12.2219 17.9983L11.7781 18C11.2477 18.001 10.7393 18.2121 10.3643 18.587C9.9893 18.962 9.7782 19.4705 9.77916 20.0008C9.78012 20.5312 9.9893 21.0397 10.3643 21.4146C10.7393 21.7896 11.2477 22.0007 11.7781 22.0017H11.78ZM4.93 19.07L4.5 19.5C4.125 19.875 3.61648 20.0857 3.08616 20.0857C2.55584 20.0857 2.04732 19.875 1.67232 19.5C1.29732 19.125 1.08661 18.6165 1.08661 18.0862C1.08661 17.5558 1.29732 17.0473 1.67232 16.6723L2.1 16.24C2.475 15.865 2.98352 15.6543 3.51384 15.6543C4.04416 15.6543 4.55268 15.865 4.92768 16.24C5.30268 16.615 5.51339 17.1235 5.51339 17.6538C5.51339 18.1842 5.30268 18.6926 4.92768 19.0676L4.93 19.07ZM4 11.78V12.22C4.00096 12.7504 3.78986 13.2588 3.41486 13.6338C3.03988 14.0088 2.53145 14.2199 2.00113 14.2208C1.4708 14.2218 0.962354 14.0107 0.587357 13.6357C0.21236 13.2607 0.00125862 12.7523 0.000298023 12.2219L0 11.7781C-0.000959404 11.2477 0.210137 10.7393 0.585141 10.3643C0.960144 9.9893 1.46856 9.7782 1.99888 9.77916C2.5292 9.78012 3.03765 9.9893 3.41264 10.3643C3.78764 10.7393 3.99874 11.2477 3.9997 11.7781L4 11.78ZM4.93 4.93L5.36 4.5C5.735 4.125 6.24352 3.91429 6.77384 3.91429C7.30416 3.91429 7.81268 4.125 8.18768 4.5C8.56268 4.875 8.77339 5.38352 8.77339 5.91384C8.77339 6.44416 8.56268 6.95268 8.18768 7.32768L7.76 7.76C7.385 8.135 6.87648 8.34571 6.34616 8.34571C5.81584 8.34571 5.30732 8.135 4.93232 7.76C4.55732 7.385 4.34661 6.87648 4.34661 6.34616C4.34661 5.81584 4.55732 5.30732 4.93232 4.93232L4.93 4.93ZM15 12C15 13.6569 13.6569 15 12 15C10.3431 15 9 13.6569 9 12C9 10.3431 10.3431 9 12 9C13.6569 9 15 10.3431 15 12Z" stroke="white" stroke-width="2" stroke-linecap="round" stroke-linejoin="round"/>
</svg>
